<svg xmlns="http://www.w3.org/2000/svg" width="671" height="477.844" viewBox="0 0 671 477.844">
  <g id="illustration" transform="translate(-228.016 -192.603)">
    <path id="Path_450" data-name="Path 450" d="M228.828,434.017l54.078,236.43H873.775l24.986-195.49a32.956,32.956,0,0,0-.88-12.669L845.915,274.363a32.339,32.339,0,0,0-26.394-23.344L423.849,192.953a32.178,32.178,0,0,0-30.03,11.965L234.927,406.86A32.28,32.28,0,0,0,228.828,434.017Z" transform="translate(0)" fill="#f4f4f4"/>
    <path id="Path_451" data-name="Path 451" d="M1032.1,348.8V520.176l196.458-2.951-46.5-168.426Z" transform="translate(-333.693 -64.895)" fill="#eaeaea"/>
    <path id="Path_452" data-name="Path 452" d="M776.65,641.083H574.528a6.725,6.725,0,0,1-6.728-6.728V516.8H776.65a6.725,6.725,0,0,1,6.728,6.728V634.356A6.725,6.725,0,0,1,776.65,641.083Z" transform="translate(-141.066 -134.454)" fill="#b2b6bb"/>
    <path id="Path_453" data-name="Path 453" d="M551.733,641.042H520.927a6.725,6.725,0,0,1-6.728-6.728V523.427a6.725,6.725,0,0,1,6.728-6.728h30.805a6.725,6.725,0,0,1,6.728,6.728V634.315A6.725,6.725,0,0,1,551.733,641.042Z" transform="translate(-118.401 -134.413)" fill="#868a91"/>
    <path id="Path_454" data-name="Path 454" d="M926.2,871.587h99.38V683.628a6.725,6.725,0,0,0-6.728-6.728H932.928a6.725,6.725,0,0,0-6.728,6.728Z" transform="translate(-289.114 -201.436)" fill="#868a91"/>
    <path id="Path_455" data-name="Path 455" d="M1057,871.587h44.26V683.628a6.725,6.725,0,0,0-6.728-6.728h-30.805a6.725,6.725,0,0,0-6.728,6.728Z" transform="translate(-342.971 -201.436)" fill="#b2b6bb"/>
    <path id="Path_456" data-name="Path 456" d="M902.335,830.987v-44.26h-223.6v44.26Z" transform="translate(-187.165 -245.871)" fill="#b2b6bb"/>
    <path id="Path_457" data-name="Path 457" d="M692.323,830.952v-44.26h-6.255v44.26Z" transform="translate(-189.407 -245.856)" opacity="0.2"/>
    <path id="Path_458" data-name="Path 458" d="M1083.2,957.8l2.125,3.3a22.4,22.4,0,0,0,11.921,9.265l26.851,9.5c2.42.767,2.125,4.308-.413,4.308h-3.364a2.294,2.294,0,0,1-1.889.944,3.367,3.367,0,0,1-2.065-.826c-.059-.059-.118-.059-.177-.118h-.472c-.059.059-.177.059-.236.177a2.4,2.4,0,0,1-1.771.826,3.42,3.42,0,0,1-1.947-.708.57.57,0,0,0-.826.059,1.8,1.8,0,0,1-1.417.649,2.968,2.968,0,0,1-1.652-.59.619.619,0,0,0-.767.059,1.991,1.991,0,0,1-1.3.531,1.837,1.837,0,0,1-1.593-.944h-.236l-33.225-.531c-3.187-.059-5.547-1.062-6.9-3.541L1057,967.891Z" transform="translate(-343.1 -316.565)" fill="#fc9d9d"/>
    <path id="Path_459" data-name="Path 459" d="M1057,967.791l26.084-10.091-15.4,10.268a2.172,2.172,0,0,0-.708,2.833l3.659,6.728a7,7,0,0,0,5.96,3.482,5.459,5.459,0,0,0,1.712-.118,42.021,42.021,0,0,1,11.213-1,41.743,41.743,0,0,0,9.324-9.029l4.9,1.239,5.783,10.8-5.665.059,3.777,1.357a.6.6,0,0,0-.59.177,1.991,1.991,0,0,1-1.3.531,1.837,1.837,0,0,1-1.593-.944h-.236l-33.225-.531c-3.187-.059-5.547-1.062-6.9-3.541Z" transform="translate(-343.013 -316.525)" opacity="0.15"/>
    <path id="Path_460" data-name="Path 460" d="M759.689,638.33l-11.8-81.321a20.676,20.676,0,0,0-15.639-17.114L700.675,532.4l-31.808.295-29.389,7.023a20.67,20.67,0,0,0-15.639,23.192l3.423,22.543,5.783,12.511a14.591,14.591,0,0,1,.649,2.125l5.37,29.33a10.887,10.887,0,0,0,10.741,8.911Z" transform="translate(-163.926 -140.843)" fill="#1abc9c"/>
    <path id="Path_461" data-name="Path 461" d="M822.293,570a.887.887,0,0,1-.885-.767l-.413-2.833a.893.893,0,0,1,1.77-.236l.413,2.833a.873.873,0,0,1-.767,1Z" transform="translate(-245.184 -154.149)" fill="#fff"/>
    <path id="Path_462" data-name="Path 462" d="M764.476,624.758a.9.9,0,0,1-.885-.826l-.3-2.892a.887.887,0,0,1,1.77-.118l.3,2.892a.836.836,0,0,1-.826.944Z" transform="translate(-221.326 -176.768)" fill="#fff"/>
    <path id="Path_463" data-name="Path 463" d="M683.776,568.558a.9.9,0,0,1-.885-.826l-.3-2.892a.887.887,0,0,1,1.77-.118l.3,2.892a.836.836,0,0,1-.826.944C683.835,568.5,683.776,568.558,683.776,568.558Z" transform="translate(-187.958 -153.529)" fill="#fff"/>
    <path id="Path_464" data-name="Path 464" d="M640.239,558.9a.988.988,0,0,1-.3-1.18l1.416-2.538a.871.871,0,0,1,1.534.826l-1.416,2.538a.879.879,0,0,1-1.18.354C640.239,558.958,640.239,558.958,640.239,558.9Z" transform="translate(-170.294 -149.737)" fill="#fff"/>
    <path id="Path_465" data-name="Path 465" d="M717.918,636.246a.824.824,0,0,1-.531-.177.915.915,0,0,1-.118-1.239l1.83-2.242a.88.88,0,1,1,1.357,1.121l-1.83,2.242A1.226,1.226,0,0,1,717.918,636.246Z" transform="translate(-202.223 -181.807)" fill="#fff"/>
    <path id="Path_466" data-name="Path 466" d="M787.477,549.228a.846.846,0,0,1-.59-.236.915.915,0,0,1-.118-1.239l1.711-2.066a.88.88,0,1,1,1.357,1.121l-1.711,2.066A.815.815,0,0,1,787.477,549.228Z" transform="translate(-230.96 -145.873)" fill="#fff"/>
    <path id="Path_467" data-name="Path 467" d="M717.5,591.37a1.009,1.009,0,0,1-.767-.413l-1.416-2.3a.9.9,0,1,1,1.534-.944l1.416,2.3a.945.945,0,0,1-.3,1.239A1.825,1.825,0,0,1,717.5,591.37Z" transform="translate(-201.443 -163.206)" fill="#fff"/>
    <path id="Path_468" data-name="Path 468" d="M662.3,600.343h-.177l-2.6-.649a.88.88,0,0,1,.413-1.711l2.6.649a.88.88,0,0,1,.649,1.062A.937.937,0,0,1,662.3,600.343Z" transform="translate(-178.15 -167.609)" fill="#fff"/>
    <path id="Path_469" data-name="Path 469" d="M796.877,651.928a.846.846,0,0,1-.59-.236.915.915,0,0,1-.118-1.24l1.711-2.065a.88.88,0,0,1,1.357,1.121l-1.711,2.065A.636.636,0,0,1,796.877,651.928Z" transform="translate(-234.847 -188.34)" fill="#fff"/>
    <path id="Path_470" data-name="Path 470" d="M785.5,594.535a.355.355,0,0,1-.236-.059l-2.892-.885a.9.9,0,1,1,.531-1.711l2.892.885a.907.907,0,0,1,.59,1.121A.886.886,0,0,1,785.5,594.535Z" transform="translate(-228.967 -165.085)" fill="#fff"/>
    <path id="Path_471" data-name="Path 471" d="M824.475,629.14l-.177-.177-1.711-2.538a.892.892,0,1,1,1.475-1l1.711,2.538a.874.874,0,0,1-.236,1.239A.883.883,0,0,1,824.475,629.14Z" transform="translate(-245.781 -178.807)" fill="#fff"/>
    <path id="Path_472" data-name="Path 472" d="M1056.154,817.246a.33.33,0,0,1-.354-.3V737.7a.36.36,0,0,1,.708,0v79.256A.331.331,0,0,1,1056.154,817.246Z" transform="translate(-342.268 -225.649)" fill="#868a91"/>
    <path id="Path_473" data-name="Path 473" d="M753.4,567.435a.355.355,0,0,1-.236-.059l-2.892-.885a.9.9,0,1,1,.531-1.711l2.892.885a.907.907,0,0,1,.59,1.121A1,1,0,0,1,753.4,567.435Z" transform="translate(-215.693 -153.879)" fill="#fff"/>
    <path id="Path_474" data-name="Path 474" d="M749.2,666.935a.355.355,0,0,1-.236-.059l-2.892-.885a.9.9,0,1,1,.531-1.711l2.892.885a.907.907,0,0,1,.59,1.121A1,1,0,0,1,749.2,666.935Z" transform="translate(-213.957 -195.022)" fill="#fff"/>
    <path id="Path_475" data-name="Path 475" d="M684.46,633.078,679.8,587.224a.481.481,0,0,1,.944-.177l14.517,47.624Z" transform="translate(-186.836 -163.099)" opacity="0.2"/>
    <path id="Path_476" data-name="Path 476" d="M798.6,696.459l.059-.059.118.118Z" transform="translate(-235.921 -208.306)" opacity="0.2"/>
    <path id="Path_477" data-name="Path 477" d="M825.665,696.077a1.757,1.757,0,0,1-2.42.3L812.8,688.7l13.278,6.078A1.729,1.729,0,0,1,825.665,696.077Z" transform="translate(-241.834 -205.152)" fill="#868a91"/>
    <path id="Path_478" data-name="Path 478" d="M963.423,857.015,937.28,867.107,874.489,756.042H764.9V711.9H890.836A19.211,19.211,0,0,1,908.6,723.821Z" transform="translate(-222.793 -215.781)" fill="#3f4249"/>
    <path id="Path_479" data-name="Path 479" d="M949.909,862.208l-12.629,4.9L874.489,756.042H764.9V711.9H869.118a19.211,19.211,0,0,1,17.763,11.921Z" transform="translate(-222.718 -215.781)" opacity="0.2"/>
    <path id="Path_480" data-name="Path 480" d="M851.623,857.015l-26.2,10.091L762.689,756.042H653.1V711.9H779.036A19.211,19.211,0,0,1,796.8,723.821Z" transform="translate(-176.399 -215.781)" fill="#3f4249"/>
    <path id="Path_481" data-name="Path 481" d="M793.11,746.659c-4.426-8.616-9.324-11.154-19-11.154H698.865L701.4,711.9H686v44.142h90.114l62.791,111.064,11.744-4.544Z" transform="translate(-189.896 -215.781)" opacity="0.2"/>
    <path id="Path_482" data-name="Path 482" d="M971.3,957.8l2.124,3.3a22.4,22.4,0,0,0,11.921,9.265l26.851,9.5c2.419.767,2.124,4.308-.413,4.308h-3.364a2.294,2.294,0,0,1-1.889.944,3.367,3.367,0,0,1-2.065-.826c-.059-.059-.118-.059-.177-.118h-.472c-.059.059-.177.059-.236.177a2.4,2.4,0,0,1-1.77.826,3.419,3.419,0,0,1-1.947-.708.57.57,0,0,0-.826.059,1.8,1.8,0,0,1-1.416.649,2.968,2.968,0,0,1-1.652-.59.619.619,0,0,0-.767.059,1.991,1.991,0,0,1-1.3.531,1.836,1.836,0,0,1-1.594-.944h-.236l-33.225-.531c-3.187-.059-5.547-1.062-6.9-3.541L945.1,967.891Z" transform="translate(-296.787 -316.565)" fill="#fc9d9d"/>
    <path id="Path_483" data-name="Path 483" d="M953.7,964.587l17.645-6.787L957,970.547l2.833,5.075c1.357,2.479,3.718,3.482,6.9,3.541l33.225.531h.236a1.791,1.791,0,0,0,1.593.944,1.83,1.83,0,0,0,1.3-.531.625.625,0,0,1,.767-.059,2.969,2.969,0,0,0,1.652.59,1.8,1.8,0,0,0,1.416-.649.632.632,0,0,1,.826-.059,3.046,3.046,0,0,0,1.947.708,2.212,2.212,0,0,0,1.771-.826.814.814,0,0,1,.236-.177h.059l.531.177a2.866,2.866,0,0,1,.413.177c.059.059.177.118.236.177,1.652,1.18,1.18,4.013-1.062,4.013h-3.364a2.293,2.293,0,0,1-1.888.944,3.367,3.367,0,0,1-2.066-.826c-.059-.059-.118-.059-.177-.118h-.472c-.059.059-.177.059-.236.177a2.4,2.4,0,0,1-1.771.826,3.42,3.42,0,0,1-1.947-.708.57.57,0,0,0-.826.059,1.8,1.8,0,0,1-1.416.649,2.969,2.969,0,0,1-1.653-.59.618.618,0,0,0-.767.059,1.991,1.991,0,0,1-1.3.531,1.836,1.836,0,0,1-1.594-.944h-.236l-33.225-.531c-3.187-.059-5.547-1.062-6.9-3.541L945.2,967.891Z" transform="translate(-296.828 -316.565)" opacity="0.15"/>
    <path id="Path_484" data-name="Path 484" d="M1005.731,980.1s-5.193,9.147-14.931,12.452h9.855Z" transform="translate(-315.451 -325.705)" opacity="0.15"/>
    <path id="Path_485" data-name="Path 485" d="M477.1,871.587h92.652a6.724,6.724,0,0,0,6.728-6.728V683.628a6.725,6.725,0,0,0-6.728-6.728H483.828a6.725,6.725,0,0,0-6.728,6.728Z" transform="translate(-103.144 -201.436)" fill="#868a91"/>
    <path id="Path_486" data-name="Path 486" d="M388.559,512.1H381.3V800.265h2.065V514.992h5.193Z" transform="translate(-62.825 -133.89)" opacity="0.4"/>
    <path id="Path_487" data-name="Path 487" d="M359.58,498.288H388.5a4.861,4.861,0,0,0,4.839-4.839V478.4H354.8v15.049A4.811,4.811,0,0,0,359.58,498.288Z" transform="translate(-51.964 -118.213)" fill="#61656d"/>
    <path id="Path_488" data-name="Path 488" d="M381.253,800.2h7.259V512.038h-7.259Z" transform="translate(-62.806 -133.865)" fill="#61656d"/>
    <path id="Path_489" data-name="Path 489" d="M388.559,512.1H381.3V793.537h2.007V514.815h5.252Z" transform="translate(-62.825 -133.89)" fill="#21252b"/>
    <path id="Path_490" data-name="Path 490" d="M359.639,501.236V497.4H354.8v3.836a4.861,4.861,0,0,0,4.839,4.839h4.839A4.823,4.823,0,0,1,359.639,501.236Z" transform="translate(-51.964 -126.045)" fill="#21252b"/>
    <path id="Path_491" data-name="Path 491" d="M320.691,998.472a1.312,1.312,0,0,1-.59-2.479,92.765,92.765,0,0,1,78.843,0,1.306,1.306,0,0,1-.59,2.479Z" transform="translate(-37.448 -328.615)" fill="#61656d"/>
    <path id="Path_492" data-name="Path 492" d="M364.036,987.318c-1.475-.059-2.951-.118-4.426-.118a89.814,89.814,0,0,0-39.421,8.793,1.306,1.306,0,0,0,.59,2.479h13.16C337.421,993.751,350.286,988.2,364.036,987.318Z" transform="translate(-37.477 -328.615)" fill="#21252b"/>
    <path id="Path_493" data-name="Path 493" d="M910.616,1006.89H276.093a.3.3,0,0,1,0-.59H910.616a.3.3,0,0,1,0,.59Z" transform="translate(-19.585 -336.444)" fill="#b2b6bb"/>
    <path id="Path_494" data-name="Path 494" d="M439.1,598.414a.279.279,0,0,1-.3-.295V497.8a.3.3,0,1,1,.59,0V598.119A.316.316,0,0,1,439.1,598.414Z" transform="translate(-86.392 -126.358)" fill="#21252b"/>
    <path id="Path_495" data-name="Path 495" d="M585.027,677.626H518.7c-.177,0-.3-.177-.3-.413s.118-.413.3-.413h66.391c.177,0,.3.177.3.413A.4.4,0,0,1,585.027,677.626Z" transform="translate(-120.181 -200.204)" fill="#b2b6bb"/>
    <path id="Path_496" data-name="Path 496" d="M1114.2,355.1l64.207,163.941h20.242L1133.321,355.1Z" transform="translate(-367.342 -67.491)" fill="#fff" opacity="0.2"/>
    <path id="Path_497" data-name="Path 497" d="M1162,355.1l64.266,163.941h6.728L1167.665,355.1Z" transform="translate(-386.934 -67.491)" fill="#fff" opacity="0.2"/>
    <path id="Path_498" data-name="Path 498" d="M1225.7,513.876h-93.36V349.936h48.1l-2.065-7.436H1025.7V521.312h202Zm-192.5-163.941H1124.9V513.876h-91.708Z" transform="translate(-331.07 -62.299)" fill="#fff"/>
    <path id="Path_499" data-name="Path 499" d="M579.075,656.671H563.849a4.231,4.231,0,0,1-4.249-4.249V627.4h23.783v25.022A4.32,4.32,0,0,1,579.075,656.671Z" transform="translate(-137.144 -179.878)" fill="#21252b"/>
    <path id="Path_500" data-name="Path 500" d="M603.518,650.491H599.8v-1.829h3.718a1.713,1.713,0,0,0,1.711-1.711V636.741a1.713,1.713,0,0,0-1.711-1.712H599.8V633.2h3.718A3.488,3.488,0,0,1,607,636.682v10.209A3.479,3.479,0,0,1,603.518,650.491Z" transform="translate(-153.736 -182.233)" fill="#21252b"/>
    <path id="Path_501" data-name="Path 501" d="M586.042,632.611v-1.83h-1.652V627.3H579.2v24.609a3.828,3.828,0,0,1-3.836,3.836H562.2a4.164,4.164,0,0,0,2.656.944h15.226a4.231,4.231,0,0,0,4.249-4.249v-4.308h1.652V646.3H584.33V632.67h1.711Z" transform="translate(-138.22 -179.837)" opacity="0.6"/>
    <path id="Path_502" data-name="Path 502" d="M566.619,610.734a.279.279,0,0,1-.295-.3,4.143,4.143,0,0,0-4.131-4.131h-2.006a3.187,3.187,0,1,1,0-6.374h11.331a2.6,2.6,0,1,0,0-5.193H568.8a3.236,3.236,0,0,1-3.246-3.246.3.3,0,1,1,.59,0,2.645,2.645,0,0,0,2.656,2.656h2.715a3.187,3.187,0,0,1,0,6.373H560.187a2.6,2.6,0,0,0,0,5.193h2.006a4.735,4.735,0,0,1,4.721,4.721A.279.279,0,0,1,566.619,610.734Z" transform="translate(-136.057 -164.869)" fill="#fff"/>
    <path id="Path_503" data-name="Path 503" d="M582.474,618.014a.279.279,0,0,1-.295-.295v-.708a.932.932,0,0,0-.944-.944,1.524,1.524,0,0,1-1.534-1.534v-1.239a1.524,1.524,0,0,1,1.534-1.534h1.888a4.672,4.672,0,0,0,4.662-4.662v-2.3a.3.3,0,1,1,.59,0v2.242a5.264,5.264,0,0,1-5.252,5.252h-1.888a.932.932,0,0,0-.944.944v1.239a.932.932,0,0,0,.944.944,1.524,1.524,0,0,1,1.534,1.534v.708A.33.33,0,0,1,582.474,618.014Z" transform="translate(-145.428 -170.35)" fill="#fff"/>
    <path id="Path_504" data-name="Path 504" d="M745.08,642.561a1.18,1.18,0,1,0-1.18-1.18A1.18,1.18,0,0,0,745.08,642.561Z" transform="translate(-213.31 -185.076)" opacity="0.6"/>
    <path id="Path_505" data-name="Path 505" d="M828.48,606.66a1.18,1.18,0,1,0-1.18-1.18A1.18,1.18,0,0,0,828.48,606.66Z" transform="translate(-247.794 -170.232)" opacity="0.6"/>
    <path id="Path_506" data-name="Path 506" d="M789.88,568.361a1.18,1.18,0,1,0-1.18-1.18A1.18,1.18,0,0,0,789.88,568.361Z" transform="translate(-231.834 -154.396)" opacity="0.6"/>
    <path id="Path_507" data-name="Path 507" d="M747.68,595.761a1.18,1.18,0,1,0-1.18-1.18A1.18,1.18,0,0,0,747.68,595.761Z" transform="translate(-214.385 -165.725)" opacity="0.6"/>
    <path id="Path_508" data-name="Path 508" d="M798.18,668.361a1.18,1.18,0,1,0-1.18-1.18A1.18,1.18,0,0,0,798.18,668.361Z" transform="translate(-235.266 -195.744)" opacity="0.6"/>
    <path id="Path_509" data-name="Path 509" d="M790.78,623.861a1.18,1.18,0,1,0-1.18-1.18A1.18,1.18,0,0,0,790.78,623.861Z" transform="translate(-232.206 -177.344)" opacity="0.6"/>
    <path id="Path_510" data-name="Path 510" d="M712.38,556.861a1.18,1.18,0,1,0-1.18-1.18A1.18,1.18,0,0,0,712.38,556.861Z" transform="translate(-199.789 -149.64)" opacity="0.6"/>
    <path id="Path_511" data-name="Path 511" d="M664.78,550.961a1.18,1.18,0,1,0-1.18-1.18A1.18,1.18,0,0,0,664.78,550.961Z" transform="translate(-180.107 -147.201)" opacity="0.6"/>
    <path id="Path_512" data-name="Path 512" d="M701.38,607.761a1.18,1.18,0,1,0-1.18-1.18A1.18,1.18,0,0,0,701.38,607.761Z" transform="translate(-195.24 -170.687)" opacity="0.6"/>
    <path id="Path_513" data-name="Path 513" d="M703.38,661.06a1.18,1.18,0,1,0-1.18-1.18A1.18,1.18,0,0,0,703.38,661.06Z" transform="translate(-196.067 -192.726)" opacity="0.6"/>
    <path id="Path_514" data-name="Path 514" d="M637.48,586.66a1.18,1.18,0,1,0-1.18-1.18A1.18,1.18,0,0,0,637.48,586.66Z" transform="translate(-168.819 -161.962)" opacity="0.6"/>
    <path id="Path_515" data-name="Path 515" d="M1129.255,1004.5h-60.9a1.652,1.652,0,1,1,0-3.3h62.5v1.652A1.638,1.638,0,0,1,1129.255,1004.5Z" transform="translate(-347.089 -334.353)" fill="#1abc9c"/>
    <path id="Path_516" data-name="Path 516" d="M1130.848,990.933a8.45,8.45,0,0,0-5.665-7.672L1105,976.239a1.528,1.528,0,0,0-2.006,1.062c-.885,2.951-3.069,9.265-7.377,13.632h-27.264a1.65,1.65,0,0,0-1.652,1.652,1.614,1.614,0,0,0,1.652,1.652h60.9a1.587,1.587,0,0,0,1.593-1.593Z" transform="translate(-347.089 -324.087)" fill="#1abc9c"/>
    <path id="Path_517" data-name="Path 517" d="M1130.848,990.933a8.45,8.45,0,0,0-5.665-7.672L1105,976.239a1.528,1.528,0,0,0-2.006,1.062c-.885,2.951-3.069,9.265-7.377,13.632h-27.264a1.65,1.65,0,0,0-1.652,1.652,1.614,1.614,0,0,0,1.652,1.652h60.9a1.587,1.587,0,0,0,1.593-1.593Z" transform="translate(-347.089 -324.087)" fill="#21252b"/>
    <path id="Path_518" data-name="Path 518" d="M1130.807,996.528a8.441,8.441,0,0,0-3.777-6.728c2.892,2.065,2.361,4.131-1.77,3.954-21.3-1-24.078-1-26.556-1.239a.217.217,0,0,0,.059-.177,24.858,24.858,0,0,1-3.246,4.19h-27.264a1.649,1.649,0,0,0-1.652,1.652,1.614,1.614,0,0,0,1.652,1.652h60.9a1.587,1.587,0,0,0,1.594-1.593v-1.711Z" transform="translate(-347.048 -329.681)" opacity="0.4"/>
    <path id="Path_519" data-name="Path 519" d="M1150.831,1000.3h-34.7l-.531.531h35.231Z" transform="translate(-367.167 -333.985)" opacity="0.4"/>
    <path id="Path_520" data-name="Path 520" d="M1017.755,1004.5h-60.9a1.652,1.652,0,1,1,0-3.3h62.5v1.652A1.638,1.638,0,0,1,1017.755,1004.5Z" transform="translate(-300.945 -334.353)" fill="#1abc9c"/>
    <path id="Path_521" data-name="Path 521" d="M1019.348,990.933a8.45,8.45,0,0,0-5.665-7.672L993.5,976.239a1.528,1.528,0,0,0-2.006,1.062c-.885,2.951-3.069,9.265-7.377,13.632H956.852a1.65,1.65,0,0,0-1.652,1.652,1.614,1.614,0,0,0,1.652,1.652h60.9a1.587,1.587,0,0,0,1.594-1.593Z" transform="translate(-300.945 -324.087)" fill="#1abc9c"/>
    <path id="Path_522" data-name="Path 522" d="M1019.348,990.933a8.45,8.45,0,0,0-5.665-7.672L993.5,976.239a1.528,1.528,0,0,0-2.006,1.062c-.885,2.951-3.069,9.265-7.377,13.632H956.852a1.65,1.65,0,0,0-1.652,1.652,1.614,1.614,0,0,0,1.652,1.652h60.9a1.587,1.587,0,0,0,1.594-1.593Z" transform="translate(-300.945 -324.087)" fill="#21252b"/>
    <path id="Path_523" data-name="Path 523" d="M1019.348,996.528a8.441,8.441,0,0,0-3.777-6.728c2.892,2.065,2.361,4.131-1.77,3.954-21.3-1-24.078-1-26.556-1.239a.217.217,0,0,0,.059-.177,24.872,24.872,0,0,1-3.246,4.19H956.852a1.649,1.649,0,0,0-1.652,1.652,1.614,1.614,0,0,0,1.652,1.652h60.9a1.587,1.587,0,0,0,1.594-1.593Z" transform="translate(-300.945 -329.681)" opacity="0.4"/>
    <path id="Path_524" data-name="Path 524" d="M1039.431,1000.3h-34.759l-.472.531h35.231Z" transform="translate(-321.084 -333.985)" opacity="0.4"/>
    <path id="Path_525" data-name="Path 525" d="M664.367,285.133a26.722,26.722,0,0,0-23.783-26.556V258.4h-2.951a26.733,26.733,0,1,0,0,53.467h2.951v-.177A26.722,26.722,0,0,0,664.367,285.133Z" transform="translate(-158.43 -26.968)" fill="#b2b6bb"/>
    <path id="Path_526" data-name="Path 526" d="M642.633,311.867A26.733,26.733,0,1,0,615.9,285.133,26.733,26.733,0,0,0,642.633,311.867Z" transform="translate(-160.499 -26.968)" fill="#868a91"/>
    <path id="Path_527" data-name="Path 527" d="M644.683,310.965A23.783,23.783,0,1,0,620.9,287.183,23.783,23.783,0,0,0,644.683,310.965Z" transform="translate(-162.554 -29.017)" fill="#fff"/>
    <path id="Path_528" data-name="Path 528" d="M644.683,310.965A23.783,23.783,0,1,0,620.9,287.183,23.783,23.783,0,0,0,644.683,310.965Z" transform="translate(-162.554 -29.017)" fill="#868a91"/>
    <path id="Path_529" data-name="Path 529" d="M644.683,310.965A23.783,23.783,0,1,0,620.9,287.183,23.783,23.783,0,0,0,644.683,310.965Z" transform="translate(-162.554 -29.017)" fill="#fff" opacity="0.9"/>
    <path id="Path_530" data-name="Path 530" d="M660.3,263.4a10,10,0,0,0-1.3.059,23.758,23.758,0,0,1,0,47.447c.413,0,.826.059,1.3.059a23.783,23.783,0,0,0,0-47.565Z" transform="translate(-178.26 -29.017)" fill="#b2b6bb"/>
    <path id="Path_531" data-name="Path 531" d="M656.02,294.662l-7.908-15.7a1.227,1.227,0,1,1,2.183-1.121l6.787,13.514,9.029-4.426a1.241,1.241,0,0,1,1.062,2.242Z" transform="translate(-173.691 -34.667)" fill="#1abc9c"/>
    <path id="Path_532" data-name="Path 532" d="M1256.147,850.768l-27.088,29.389.177-54.057h-.708l-.059,26.2-22.9-23.311-.472.472,23.369,23.842-.177,48.982H1229l.059-21.127,27.56-29.92Z" transform="translate(-404.599 -262.587)" fill="#21252b"/>
    <path id="Path_533" data-name="Path 533" d="M1210.072,903.624l-.472.472,11.921,11.213,1.888,10.564.649-.118-7.495-42.254-.708.118,5.488,30.569Z" transform="translate(-406.443 -286.113)" fill="#21252b"/>
    <path id="Path_534" data-name="Path 534" d="M1221.324,987.372h16.819a5.73,5.73,0,0,0,5.724-5.724V959.4H1215.6v22.248A5.73,5.73,0,0,0,1221.324,987.372Z" transform="translate(-408.902 -317.221)" fill="#61656d"/>
    <path id="Path_535" data-name="Path 535" d="M1233.186,801.772a17.586,17.586,0,1,0-17.586-17.586A17.585,17.585,0,0,0,1233.186,801.772Z" transform="translate(-408.902 -237.495)" fill="#1abc9c"/>
    <path id="Path_536" data-name="Path 536" d="M1209.97,869.04a12.57,12.57,0,1,0-12.57-12.57A12.571,12.571,0,0,0,1209.97,869.04Z" transform="translate(-401.443 -269.882)" fill="#1abc9c"/>
    <g id="Group_8" data-name="Group 8" transform="translate(795.957 574.018)" opacity="0.3">
      <path id="Path_537" data-name="Path 537" d="M1209.97,869.04a12.57,12.57,0,1,0-12.57-12.57A12.571,12.571,0,0,0,1209.97,869.04Z" transform="translate(-1197.4 -843.9)" fill="#fff" opacity="0.3"/>
    </g>
    <g id="Group_9" data-name="Group 9" transform="translate(806.698 529.105)" opacity="0.3">
      <path id="Path_538" data-name="Path 538" d="M1233.186,801.772a17.586,17.586,0,1,0-17.586-17.586A17.585,17.585,0,0,0,1233.186,801.772Z" transform="translate(-1215.6 -766.6)" fill="#fff" opacity="0.3"/>
    </g>
    <path id="Path_539" data-name="Path 539" d="M1194.495,827.89a7.495,7.495,0,1,0-7.495-7.495A7.5,7.5,0,0,0,1194.495,827.89Z" transform="translate(-397.18 -256.547)" fill="#1abc9c"/>
    <path id="Path_540" data-name="Path 540" d="M1193.211,910.822a8.911,8.911,0,1,0-8.911-8.911A8.911,8.911,0,0,0,1193.211,910.822Z" transform="translate(-396.074 -290.006)" fill="#1abc9c"/>
    <path id="Path_541" data-name="Path 541" d="M1272.29,884.779a11.39,11.39,0,1,0-11.39-11.39A11.389,11.389,0,0,0,1272.29,884.779Z" transform="translate(-427.469 -277.301)" fill="#1abc9c"/>
    <path id="Path_542" data-name="Path 542" d="M1243.023,954.3h-29.448a1.475,1.475,0,0,0,0,2.951h29.448a1.475,1.475,0,0,0,0-2.951Z" transform="translate(-407.468 -315.131)" fill="#61656d"/>
    <path id="Path_543" data-name="Path 543" d="M1215.6,784.186a17.592,17.592,0,0,1,17.586-17.586v35.231A17.643,17.643,0,0,1,1215.6,784.186Z" transform="translate(-408.902 -237.495)" fill="#1abc9c"/>
    <path id="Path_544" data-name="Path 544" d="M1211.759,869.086a12.594,12.594,0,0,1-4.426-24.786Z" transform="translate(-401.403 -270.046)" fill="#1abc9c"/>
    <path id="Path_545" data-name="Path 545" d="M1189.142,827.182a7.48,7.48,0,0,1-.059-10.623.206.206,0,0,1,.118-.059l10.5,10.74A7.572,7.572,0,0,1,1189.142,827.182Z" transform="translate(-397.139 -258.025)" opacity="0.3"/>
    <path id="Path_546" data-name="Path 546" d="M1199.484,910.052a8.931,8.931,0,0,1-12.806-12.452l12.983,12.216C1199.661,909.934,1199.6,909.993,1199.484,910.052Z" transform="translate(-396.032 -291.892)" opacity="0.3"/>
    <path id="Path_547" data-name="Path 547" d="M1242.333,957.351H1216.6a1.475,1.475,0,1,1,0-2.951h-3.128a1.475,1.475,0,1,0,0,2.951h.59V979.6a5.73,5.73,0,0,0,5.724,5.724h9.147a8.35,8.35,0,0,1-8.2-6.728l-4.072-20.773h25.612v-.472Z" transform="translate(-407.426 -315.172)" fill="#3f4249"/>
    <path id="Path_548" data-name="Path 548" d="M1282.562,867.018c-.059-.059-.118-.059-.118-.118L1267.1,883.719l.059.059a11.381,11.381,0,1,0,15.4-16.76Z" transform="translate(-430.01 -279.309)" opacity="0.3"/>
    <path id="Path_549" data-name="Path 549" d="M1186.938,361.315H1038.4V358.6h147.83Z" transform="translate(-336.275 -68.638)" fill="#fff"/>
    <path id="Path_550" data-name="Path 550" d="M1188.3,369.415H1038.4V366.7h149.128Z" transform="translate(-336.275 -71.988)" fill="#fff"/>
    <path id="Path_551" data-name="Path 551" d="M1189.594,377.515H1038.4V374.8h150.427Z" transform="translate(-336.275 -75.337)" fill="#fff"/>
    <path id="Path_552" data-name="Path 552" d="M1190.951,385.615H1038.4V382.9h151.784Z" transform="translate(-336.275 -78.686)" fill="#fff"/>
    <path id="Path_553" data-name="Path 553" d="M1192.25,393.715H1038.4V391h153.082Z" transform="translate(-336.275 -82.035)" fill="#fff"/>
    <path id="Path_554" data-name="Path 554" d="M1193.548,401.774H1038.4V399h154.38Z" transform="translate(-336.275 -85.344)" fill="#fff"/>
    <path id="Path_555" data-name="Path 555" d="M1042.989,431.328h-.118V355.2h-.649v76.128h-.118a1,1,0,0,0-1,1v10.622a1,1,0,0,0,1,1h.885a1,1,0,0,0,1-1V432.331A.961.961,0,0,0,1042.989,431.328Z" transform="translate(-336.199 -67.362)" fill="#fff"/>
    <path id="Path_556" data-name="Path 556" d="M803.3,587.025l5.606,55.3,4.9,4.839,4.485-2.951-9.8-53.113C807.49,586.729,803.3,586.375,803.3,587.025Z" transform="translate(-237.91 -163.182)" opacity="0.2"/>
    <path id="Path_557" data-name="Path 557" d="M1039.875,358.6H1038.4v2.715h1.475Z" transform="translate(-335.077 -68.638)" opacity="0.2"/>
    <path id="Path_558" data-name="Path 558" d="M1039.875,366.7H1038.4v2.715h1.475Z" transform="translate(-335.077 -71.988)" opacity="0.2"/>
    <path id="Path_559" data-name="Path 559" d="M1039.875,374.8H1038.4v2.715h1.475Z" transform="translate(-335.077 -75.337)" opacity="0.2"/>
    <path id="Path_560" data-name="Path 560" d="M1039.875,382.9H1038.4v2.715h1.475Z" transform="translate(-335.077 -78.686)" opacity="0.2"/>
    <path id="Path_561" data-name="Path 561" d="M1039.875,390.9H1038.4v2.715h1.475Z" transform="translate(-335.077 -81.994)" opacity="0.2"/>
    <path id="Path_562" data-name="Path 562" d="M1039.875,399H1038.4v2.715h1.475Z" transform="translate(-335.077 -85.343)" opacity="0.2"/>
    <path id="Path_563" data-name="Path 563" d="M1201.236,363.2H1193.8v1.18h7.436Z" transform="translate(-399.967 -70.538)" opacity="0.2"/>
    <path id="Path_564" data-name="Path 564" d="M1201.236,371.3H1193.8v1.18h7.436Z" transform="translate(-399.967 -73.888)" opacity="0.2"/>
    <path id="Path_565" data-name="Path 565" d="M1201.236,379.4H1193.8v1.18h7.436Z" transform="translate(-399.967 -77.237)" opacity="0.2"/>
    <path id="Path_566" data-name="Path 566" d="M1201.236,387.5H1193.8v1.18h7.436Z" transform="translate(-399.967 -80.586)" opacity="0.2"/>
    <path id="Path_567" data-name="Path 567" d="M1201.236,395.6H1193.8v1.18h7.436Z" transform="translate(-399.967 -83.935)" opacity="0.2"/>
    <path id="Path_568" data-name="Path 568" d="M1201.236,403.7H1193.8v1.18h7.436Z" transform="translate(-399.967 -87.284)" opacity="0.2"/>
    <path id="Path_569" data-name="Path 569" d="M325.745,360.2h50.044l27.855,79.492H297.3Z" transform="translate(-28.397 -69.416)" fill="#1abc9c"/>
    <path id="Path_570" data-name="Path 570" d="M325.745,360.2H341.56l-10.918,79.492H297.3Z" transform="translate(-28.397 -69.416)" fill="#1abc9c"/>
    <path id="Path_571" data-name="Path 571" d="M345.439,357.731h50.1v-3.6h-50.1Z" transform="translate(-48.127 -66.792)" fill="#1abc9c"/>
    <path id="Path_572" data-name="Path 572" d="M297.353,498.432H403.7v-3.6H297.353Z" transform="translate(-28.419 -124.971)" fill="#1abc9c"/>
    <path id="Path_573" data-name="Path 573" d="M325.745,360.2h50.044l27.855,79.492H297.3Z" transform="translate(-28.397 -69.416)" fill="#fff" opacity="0.4"/>
    <path id="Path_574" data-name="Path 574" d="M358.18,360.2h37.651l27.855,79.492H346.2Z" transform="translate(-48.439 -69.416)" fill="#fff" opacity="0.4"/>
    <path id="Path_575" data-name="Path 575" d="M698.006,532.736s-.59,2.42,1.3,3.6a25.993,25.993,0,0,0,21.894,3.246,24.675,24.675,0,0,0,7.141-3.541,3.624,3.624,0,0,0,1.475-2.419V532.5l3.246.767a6.473,6.473,0,0,1-1.947,4.544c-.944.944-14.93,11.744-32.753,1.77a5.908,5.908,0,0,1-3.482-6.078Z" transform="translate(-193.123 -140.567)" opacity="0.6"/>
    <path id="Path_576" data-name="Path 576" d="M680.207,299.357a23.769,23.769,0,0,0-20.36-36.057c-.649,0-1.3.059-1.948.059Z" transform="translate(-177.806 -28.976)" fill="#fff" opacity="0.5"/>
    <path id="Path_577" data-name="Path 577" d="M649.464,264.5a28.032,28.032,0,0,0-3.364,1.062l24.609,39.893a23.673,23.673,0,0,0,2.656-2.773Z" transform="translate(-172.929 -29.468)" fill="#fff" opacity="0.5"/>
    <path id="Path_578" data-name="Path 578" d="M770.895,677.872l8.38,1.121,17.881-1.593a6.01,6.01,0,0,1,4.131,1.77l11.036,9.855a1.763,1.763,0,0,1-2.243,2.715l-10.445-7.672,6.787,8.026a1.713,1.713,0,0,1-.708,2.715,1.744,1.744,0,0,1-1.77-.354l-9.088-8.911,6.9,6.787a1.6,1.6,0,0,1-2.065,2.419l-9.678-7.082,6.551,4.839a1.38,1.38,0,0,1,0,2.243,1.42,1.42,0,0,1-1.357.177l-8.793-3.659a3.21,3.21,0,0,0-2.656.059L780.4,692.98a19.844,19.844,0,0,1-8.793,2.065h-5.488C758.266,695.045,770.895,677.872,770.895,677.872Z" transform="translate(-221.578 -200.516)" fill="#fc9d9d"/>
    <path id="Path_579" data-name="Path 579" d="M684.972,661.121l-2.951-.236a1.235,1.235,0,0,1-1-1.77l3.128-6.314Z" transform="translate(-187.264 -190.307)" opacity="0.15"/>
    <path id="Path_580" data-name="Path 580" d="M815.111,700.012a.217.217,0,0,1-.177-.059l-6.019-4.426a.3.3,0,0,1,.354-.472l6.02,4.426a.292.292,0,0,1,.059.413A.447.447,0,0,1,815.111,700.012Z" transform="translate(-240.155 -207.742)" opacity="0.15"/>
    <path id="Path_581" data-name="Path 581" d="M823.507,698.384c-.059,0-.177,0-.177-.059l-6.492-6.373a.292.292,0,0,1,.413-.413l6.492,6.373a.285.285,0,0,1,0,.413A.354.354,0,0,1,823.507,698.384Z" transform="translate(-243.447 -206.285)" opacity="0.15"/>
    <path id="Path_582" data-name="Path 582" d="M802.362,698.894c2.006,1,5.37,2.715,6.55,3.364,1.652.944,2.125-.3,2.125-.3a1.447,1.447,0,0,1-.531,1.475,1.421,1.421,0,0,1-1.357.177l-8.793-3.659a3.211,3.211,0,0,0-2.656.059l1.711-1A3.258,3.258,0,0,1,802.362,698.894Z" transform="translate(-235.589 -209.234)" opacity="0.15"/>
    <path id="Path_583" data-name="Path 583" d="M714.229,651.939,663.536,644.5l-3.3-32.1L628.6,613.993l6.433,41.015a15.849,15.849,0,0,0,15.639,13.4h57.657Z" transform="translate(-165.84 -173.774)" fill="#1abc9c"/>
    <path id="Path_584" data-name="Path 584" d="M721.134,651.98l-57.6-7.377-3.3-32.1L628.6,614.093l6.433,41.015a15.849,15.849,0,0,0,15.639,13.4H715.41Z" transform="translate(-165.86 -173.815)" fill="#1abc9c"/>
    <path id="Path_585" data-name="Path 585" d="M813.9,690.752l-2.3-1.652Z" transform="translate(-241.302 -205.293)" fill="#9a73ef"/>
    <path id="Path_586" data-name="Path 586" d="M659.88,625.861a1.18,1.18,0,1,0-1.18-1.18A1.18,1.18,0,0,0,659.88,625.861Z" transform="translate(-178.081 -178.171)" opacity="0.6"/>
    <path id="Path_587" data-name="Path 587" d="M770.823,678.2l5.724.708-5.665,16.465H763.8Z" transform="translate(-221.568 -200.845)" opacity="0.6"/>
    <g id="Group_10" data-name="Group 10" transform="translate(497.376 468.884)" opacity="0.2">
      <path id="Path_588" data-name="Path 588" d="M740.14,671.844a.431.431,0,0,1-.413.354h-.059l-52.05-7.554-.118-.944,52.286,7.613A.459.459,0,0,1,740.14,671.844Z" transform="translate(-687.5 -663.7)" opacity="0.2"/>
    </g>
    <path id="Path_589" data-name="Path 589" d="M678.776,638.358a.9.9,0,0,1-.885-.826l-.3-2.892a.887.887,0,0,1,1.77-.118l.295,2.892a.836.836,0,0,1-.826.944Z" transform="translate(-185.891 -182.392)" fill="#fff"/>
    <path id="Path_590" data-name="Path 590" d="M641.677,655.228a.845.845,0,0,1-.59-.236.915.915,0,0,1-.118-1.239l1.711-2.065a.88.88,0,1,1,1.357,1.121l-1.711,2.065A.815.815,0,0,1,641.677,655.228Z" transform="translate(-170.674 -189.704)" fill="#fff"/>
    <path id="Path_591" data-name="Path 591" d="M684.2,689.135a.354.354,0,0,1-.236-.059l-2.892-.885a.9.9,0,1,1,.531-1.711l2.892.885a.907.907,0,0,1,.59,1.121A.887.887,0,0,1,684.2,689.135Z" transform="translate(-187.079 -204.201)" fill="#fff"/>
    <path id="Path_592" data-name="Path 592" d="M728.918,689.746a.824.824,0,0,1-.531-.177.915.915,0,0,1-.118-1.239l1.829-2.243a.88.88,0,0,1,1.357,1.121l-1.83,2.243A1.226,1.226,0,0,1,728.918,689.746Z" transform="translate(-206.772 -203.929)" fill="#fff"/>
    <path id="Path_593" data-name="Path 593" d="M708.78,679.761a1.18,1.18,0,1,0-1.18-1.18A1.18,1.18,0,0,0,708.78,679.761Z" transform="translate(-198.3 -200.458)" opacity="0.6"/>
    <path id="Path_594" data-name="Path 594" d="M745.08,701.761a1.18,1.18,0,1,0-1.18-1.18A1.18,1.18,0,0,0,745.08,701.761Z" transform="translate(-213.31 -209.555)" opacity="0.6"/>
    <path id="Path_595" data-name="Path 595" d="M666.28,663.061a1.18,1.18,0,1,0-1.18-1.18A1.18,1.18,0,0,0,666.28,663.061Z" transform="translate(-180.727 -193.553)" opacity="0.6"/>
    <path id="Path_596" data-name="Path 596" d="M714.326,636.8l-.944,2.892H648.643A15.8,15.8,0,0,1,633,626.3l-9.265-59.309A20.67,20.67,0,0,1,639.378,543.8l5.488-1.3a20.632,20.632,0,0,0-12.039,21.953l8.557,54.647a15.849,15.849,0,0,0,15.639,13.4Z" transform="translate(-163.746 -144.992)" opacity="0.15"/>
    <path id="Path_597" data-name="Path 597" d="M782.428,692.973a2.378,2.378,0,0,1-2.3-2.6l1.3-10.977L775.7,695.865h.826a19.658,19.658,0,0,0,8.793-2.066l4.013-1.888A30.166,30.166,0,0,1,782.428,692.973Z" transform="translate(-226.492 -201.339)" opacity="0.15"/>
    <path id="Path_598" data-name="Path 598" d="M761.785,706.5h58.188a.908.908,0,0,1,.885.885v1.475a.908.908,0,0,1-.885.885H761.785a.908.908,0,0,1-.885-.885v-1.475A.869.869,0,0,1,761.785,706.5Z" transform="translate(-220.52 -212.494)" fill="#21252b"/>
    <path id="Path_599" data-name="Path 599" d="M761.785,706.5h58.188a.908.908,0,0,1,.885.885v1.475a.908.908,0,0,1-.885.885H761.785a.908.908,0,0,1-.885-.885v-1.475A.869.869,0,0,1,761.785,706.5Z" transform="translate(-220.52 -212.494)" opacity="0.6"/>
    <path id="Path_600" data-name="Path 600" d="M828.285,706.5H929.73a.908.908,0,0,1,.885.885v1.475a.908.908,0,0,1-.885.885H828.285a.908.908,0,0,1-.885-.885v-1.475A.952.952,0,0,1,828.285,706.5Z" transform="translate(-248.219 -212.494)" fill="#21252b"/>
    <g id="Group_11" data-name="Group 11" transform="translate(576.659 494.016)" opacity="0.6">
      <path id="Path_601" data-name="Path 601" d="M926.669,707.09H823.4a.3.3,0,1,1,0-.59H926.669a.279.279,0,0,1,.295.3A.316.316,0,0,1,926.669,707.09Z" transform="translate(-823.1 -706.5)" opacity="0.6"/>
    </g>
    <path id="Path_602" data-name="Path 602" d="M826.8,656.333h15.285a2.463,2.463,0,0,0,2.42-2.006l12.806-67.335a2.432,2.432,0,0,0-2.42-2.892H839.6a2.463,2.463,0,0,0-2.42,2.006l-12.806,67.335A2.462,2.462,0,0,0,826.8,656.333Z" transform="translate(-246.676 -162.123)" fill="#21252b"/>
    <path id="Path_603" data-name="Path 603" d="M826.8,656.333h15.285a2.463,2.463,0,0,0,2.42-2.006l12.806-67.335a2.432,2.432,0,0,0-2.42-2.892H839.6a2.463,2.463,0,0,0-2.42,2.006l-12.806,67.335A2.462,2.462,0,0,0,826.8,656.333Z" transform="translate(-246.676 -162.123)" opacity="0.6"/>
    <path id="Path_604" data-name="Path 604" d="M830.528,656.333h98.14a2.463,2.463,0,0,0,2.42-2.006l12.806-67.335a2.432,2.432,0,0,0-2.419-2.892H843.393a2.463,2.463,0,0,0-2.42,2.006l-12.806,67.335A2.393,2.393,0,0,0,830.528,656.333Z" transform="translate(-248.574 -162.123)" fill="#21252b"/>
    <path id="Path_605" data-name="Path 605" d="M921.693,638.7c-.59,1.357.059,2.538,1.416,2.538h.236a8.571,8.571,0,0,1-6.137,2.951c-2.892-.059-4.249-2.42-2.951-5.311a8.819,8.819,0,0,1,7.554-5.075,3.212,3.212,0,0,1,3.364,2.479A4.265,4.265,0,0,0,921.693,638.7Z" transform="translate(-283.579 -182.456)" opacity="0.6"/>
    <path id="Path_606" data-name="Path 606" d="M734.6,467.628s-27.028-19.829-29.684,1.77l-.767,5.665-4.013,27.678v.058l-.059.59a2.821,2.821,0,0,0,.59,2.184v.058l.059.06a2.514,2.514,0,0,0,.708.649,26.966,26.966,0,0,0,5.37,2.715,25.261,25.261,0,0,0,24.373-3.541,3.356,3.356,0,0,0,.767-2.36l-.472-14.4a23.851,23.851,0,0,0,.944-4.957C733.3,475.3,734.6,467.628,734.6,467.628Z" transform="translate(-195.264 -110.394)" fill="#fc9d9d"/>
    <path id="Path_607" data-name="Path 607" d="M757.119,462.639a9.619,9.619,0,1,0-9.619-9.619A9.619,9.619,0,0,0,757.119,462.639Z" transform="translate(-214.847 -103.735)" fill="#21252b"/>
    <path id="Path_608" data-name="Path 608" d="M742.456,445.851s6.964,42.9-14.931,44.142c-18.943,1.121-18.825-28.209-18.825-28.209L711,442.9Z" transform="translate(-198.843 -103.589)" fill="#fc9d9d"/>
    <path id="Path_609" data-name="Path 609" d="M735.12,435.9H715.881a4.357,4.357,0,0,0-4.367,4.367,4.357,4.357,0,0,1-4.367,4.367,1.184,1.184,0,0,0-1.18,1.18v4.249a1,1,0,0,1-1,1,.954.954,0,0,1-.944-.826l-.59-4.072-.767-1.416-4.721,2.479s-6.492-11.8-2.242-21.776c2.419-5.724,8.38-7.318,11.095-7.495a3.1,3.1,0,0,0,2.242-1.239c1.239-1.829,4.19-4.9,10.209-4.19a10.043,10.043,0,0,1,8.144,5.37,3.039,3.039,0,0,0,3.6,1.357,8.334,8.334,0,0,1,8.026,1.18C745.152,424.685,741.847,435.366,735.12,435.9Z" transform="translate(-192.906 -90.959)" fill="#21252b"/>
    <path id="Path_610" data-name="Path 610" d="M706.19,488.113a4.458,4.458,0,0,0,2.774-.413l-3.364,4.485Z" transform="translate(-197.476 -122.024)" opacity="0.15"/>
    <path id="Path_611" data-name="Path 611" d="M703.8,467.5a3.867,3.867,0,0,0-5.37-2.538c-4.839,1.711-4.721,12.511,3.246,13.691,4.19.649,3.482-1.829,3.01-5.134Z" transform="translate(-193.18 -112.499)" fill="#fc9d9d"/>
    <path id="Path_612" data-name="Path 612" d="M699.836,469.441a2.939,2.939,0,0,1,2.361-.413,2.989,2.989,0,0,1,1.711,1.593,6.157,6.157,0,0,1,.59,2.951v.944a.5.5,0,0,1-1-.059v-.944a5.842,5.842,0,0,0-.472-2.479,2.061,2.061,0,0,0-1.121-1.121,2.2,2.2,0,0,0-1.594.354.475.475,0,0,1-.649-.177A.5.5,0,0,1,699.836,469.441Z" transform="translate(-194.999 -114.263)" opacity="0.3"/>
    <path id="Path_613" data-name="Path 613" d="M761.715,452.225l-2.243.059a.444.444,0,1,1-.059-.885l2.242-.059a3.483,3.483,0,0,0,.826-.118,11.012,11.012,0,0,0,2.656-1.062.436.436,0,0,1,.413.767,10.341,10.341,0,0,1-2.892,1.121A2.248,2.248,0,0,1,761.715,452.225Z" transform="translate(-219.566 -106.472)" fill="#fc9d9d"/>
    <path id="Path_614" data-name="Path 614" d="M739.3,522.531l-.236-6.846c-1.947,1.77-7.377,4.072-13.1,2.242h0a14.416,14.416,0,0,1-7.2-5.252.426.426,0,1,0-.708.472,15.705,15.705,0,0,0,9.56,6.078A15.468,15.468,0,0,0,739.3,522.531Z" transform="translate(-202.65 -132.291)" opacity="0.15"/>
    <g id="Group_12" data-name="Group 12" transform="translate(527.712 376.651)" opacity="0.3">
      <path id="Path_615" data-name="Path 615" d="M742.246,507.58H739.59a.59.59,0,0,1,0-1.18h2.6a.591.591,0,0,1,.59.59A.778.778,0,0,1,742.246,507.58Z" transform="translate(-739 -506.4)" opacity="0.3"/>
    </g>
    <g id="Group_13" data-name="Group 13" transform="translate(524.599 370.967)" opacity="0.3">
      <path id="Path_616" data-name="Path 616" d="M741.144,501.194c-4.78.354-6.728-2.361-7.377-3.718a.528.528,0,1,1,.944-.472c.649,1.3,2.774,4.19,8.616,2.715a.544.544,0,0,1,.236,1.062A12.229,12.229,0,0,1,741.144,501.194Z" transform="translate(-733.721 -496.722)" opacity="0.3"/>
    </g>
    <path id="Path_617" data-name="Path 617" d="M735.811,481.923a1.711,1.711,0,1,0-1.711-1.711A1.711,1.711,0,0,0,735.811,481.923Z" transform="translate(-209.26 -118.218)" fill="#21252b"/>
    <path id="Path_618" data-name="Path 618" d="M738.154,482.209a.354.354,0,1,0-.354-.355A.354.354,0,0,0,738.154,482.209Z" transform="translate(-210.783 -119.452)" fill="#fff"/>
    <path id="Path_619" data-name="Path 619" d="M759.011,483.723a1.711,1.711,0,1,0-1.711-1.711A1.711,1.711,0,0,0,759.011,483.723Z" transform="translate(-218.853 -118.962)" fill="#21252b"/>
    <path id="Path_620" data-name="Path 620" d="M761.354,483.908a.354.354,0,1,0-.354-.354A.354.354,0,0,0,761.354,483.908Z" transform="translate(-220.376 -120.155)" fill="#fff"/>
    <g id="Group_14" data-name="Group 14" transform="translate(530.7 367.085)" opacity="0.3">
      <path id="Path_621" data-name="Path 621" d="M746.992,494.35h-2.361a.531.531,0,1,1,0-1.062h2.361a1.062,1.062,0,0,0,0-2.125.531.531,0,1,1,0-1.062,2.125,2.125,0,0,1,0,4.249Z" transform="translate(-744.1 -490.101)" opacity="0.3"/>
    </g>
    <path id="Path_622" data-name="Path 622" d="M750.787,474.946l-7.554-.531-1-.059-6.61-.472h-.059l-8.5-.59a2.463,2.463,0,0,0-2.656,2.3l-.118,1.948a6.8,6.8,0,0,0,13.573.944l.118-1.947a2.24,2.24,0,0,0-.413-1.534l2.656.177a2.6,2.6,0,0,0-.649,1.475l-.118,1.947a6.8,6.8,0,1,0,13.573.944l.118-1.947A2.629,2.629,0,0,0,750.787,474.946Zm-13.868,1.593-.118,1.947a5.8,5.8,0,1,1-11.567-.826l.118-1.948a1.513,1.513,0,0,1,1.594-1.416l8.5.59h.059A1.567,1.567,0,0,1,736.919,476.539Zm15.049,2.951a5.8,5.8,0,1,1-11.567-.826l.118-1.947a1.513,1.513,0,0,1,1.593-1.416l1,.059,7.554.531a1.513,1.513,0,0,1,1.416,1.593Z" transform="translate(-205.269 -116.081)" fill="#21252b"/>
    <path id="Path_623" data-name="Path 623" d="M611.1,871.587h44.26V683.628a6.725,6.725,0,0,0-6.728-6.728H617.828a6.725,6.725,0,0,0-6.728,6.728Z" transform="translate(-158.491 -201.436)" fill="#b2b6bb"/>
  </g>
</svg>
