<svg xmlns="http://www.w3.org/2000/svg" width="189.351" height="49.527" viewBox="0 0 189.351 49.527">
  <g id="Logo_Coursify_-_inverso" data-name="Logo Coursify - inverso" transform="translate(-0.168 -1.053)">
    <path id="Path_21" data-name="Path 21" d="M34.453,50.036a14.472,14.472,0,0,1,0-28.943l0,3.486a10.986,10.986,0,0,0,0,21.971Z" transform="translate(-9.683 -9.748)" fill="#348a8d" fill-rule="evenodd"/>
    <path id="Path_22" data-name="Path 22" d="M41.654,49.631a6.818,6.818,0,0,1,0-13.636l0,1.643V47.988Z" transform="translate(-16.885 -16.996)" fill="#b34c65" fill-rule="evenodd"/>
    <path id="Path_23" data-name="Path 23" d="M28.708,50.359a20.577,20.577,0,0,1,0-41.154v2.323a18.253,18.253,0,0,0,0,36.506Z" transform="translate(-3.939 -3.965)" fill="#e3ab51" fill-rule="evenodd"/>
    <path id="Path_24" data-name="Path 24" d="M24.771,50.58a24.764,24.764,0,0,1,0-49.527V2.215a23.6,23.6,0,0,0,0,47.2Z" transform="translate(0)" fill="#cfc059" fill-rule="evenodd"/>
    <path id="Path_25" data-name="Path 25" d="M294.075,57.269a1.846,1.846,0,0,1,.452-1.339,1.738,1.738,0,0,1,1.308-.466,1.717,1.717,0,0,1,1.319.484,1.861,1.861,0,0,1,.451,1.321,1.907,1.907,0,0,1-.458,1.345,1.988,1.988,0,0,1-2.621.006A1.916,1.916,0,0,1,294.075,57.269Zm16.771,1.494H308.04V50.61a3.713,3.713,0,0,0-.571-2.266,2.1,2.1,0,0,0-1.783-.747,2.714,2.714,0,0,0-2.372,1.058,6.236,6.236,0,0,0-.755,3.521v6.588h-2.793V45.54h2.187l.392,1.734h.142a3.651,3.651,0,0,1,1.587-1.459,5.1,5.1,0,0,1,2.289-.514q3.031,0,4.018,2.08h.19a4.019,4.019,0,0,1,1.641-1.53,5.18,5.18,0,0,1,2.425-.55,4.4,4.4,0,0,1,3.43,1.2,5.317,5.317,0,0,1,1.075,3.647v8.62h-2.793V50.61a3.686,3.686,0,0,0-.576-2.266,2.118,2.118,0,0,0-1.789-.747,2.765,2.765,0,0,0-2.383,1.022,5.292,5.292,0,0,0-.755,3.138ZM327.366,59a6.339,6.339,0,0,1-4.8-1.8,6.855,6.855,0,0,1-1.73-4.956,7.523,7.523,0,0,1,1.605-5.093,5.527,5.527,0,0,1,4.41-1.853,5.4,5.4,0,0,1,4.113,1.59,6.1,6.1,0,0,1,1.51,4.376v1.518h-8.761a4.358,4.358,0,0,0,1.034,2.959,3.592,3.592,0,0,0,2.746,1.034,10.082,10.082,0,0,0,2.169-.221,11.327,11.327,0,0,0,2.158-.735v2.284a8.547,8.547,0,0,1-2.068.693A12.612,12.612,0,0,1,327.366,59Zm-.511-11.573a2.8,2.8,0,0,0-2.134.849,4.061,4.061,0,0,0-.957,2.475h5.967a3.676,3.676,0,0,0-.784-2.481A2.676,2.676,0,0,0,326.855,47.429Z" transform="translate(-142.959 -21.523)" fill="#ffa900" fill-rule="evenodd"/>
    <path id="Path_26" data-name="Path 26" d="M71.057,43.887a9.2,9.2,0,0,1-7.231-2.929q-2.615-2.929-2.615-8.17,0-5.38,2.714-8.379a9.516,9.516,0,0,1,7.43-3,14.862,14.862,0,0,1,5.349.976l-.535,1.754a15.622,15.622,0,0,0-4.854-.937,7.351,7.351,0,0,0-6,2.461q-2.041,2.461-2.041,7.084a10.5,10.5,0,0,0,2.041,6.865,6.978,6.978,0,0,0,5.706,2.481,13.934,13.934,0,0,0,5.448-1.056v1.833A12.287,12.287,0,0,1,71.057,43.887ZM97.185,32.629q0,5.3-2.556,8.279a8.8,8.8,0,0,1-7.054,2.979,9.1,9.1,0,0,1-4.993-1.375,8.782,8.782,0,0,1-3.308-3.945,14.424,14.424,0,0,1-1.149-5.938q0-5.3,2.556-8.26a8.782,8.782,0,0,1,7.014-2.959,8.616,8.616,0,0,1,6.964,3Q97.185,27.408,97.185,32.629Zm-17,0a11.07,11.07,0,0,0,1.951,6.964,7.338,7.338,0,0,0,11.036,0,11.069,11.069,0,0,0,1.952-6.964,10.894,10.894,0,0,0-1.971-6.954A6.681,6.681,0,0,0,87.616,23.2a6.581,6.581,0,0,0-5.5,2.461Q80.186,28.125,80.186,32.629Zm22.3-10.8V35.857q0,3.268,1.367,4.752a5.5,5.5,0,0,0,4.24,1.485q3.843,0,5.657-1.953t1.812-6.357V21.828h1.942v21.66h-1.665l-.356-2.989h-.119q-2.1,3.388-7.469,3.388-7.35,0-7.35-7.911V21.828Zm28.347-.418a16.764,16.764,0,0,1,2.933.279l-.376,1.893a11.415,11.415,0,0,0-2.794-.339,5.415,5.415,0,0,0-4.517,2.351,9.623,9.623,0,0,0-1.763,5.938V43.489h-1.961V21.828h1.664l.2,3.906h.139a9.171,9.171,0,0,1,2.833-3.358A6.609,6.609,0,0,1,130.838,21.41Zm18.3,16.439a5.158,5.158,0,0,1-2.2,4.474,10.656,10.656,0,0,1-6.241,1.564,14.81,14.81,0,0,1-6.855-1.335V40.42a15.056,15.056,0,0,0,6.855,1.634,9,9,0,0,0,4.844-1.066,3.245,3.245,0,0,0,1.654-2.84,3.468,3.468,0,0,0-1.317-2.75,14.464,14.464,0,0,0-4.329-2.192,24.721,24.721,0,0,1-4.537-2.023,6.283,6.283,0,0,1-1.971-1.913,4.825,4.825,0,0,1-.664-2.6,4.449,4.449,0,0,1,2.031-3.846,9.822,9.822,0,0,1,5.676-1.415,16.912,16.912,0,0,1,6.618,1.315l-.733,1.793a15.44,15.44,0,0,0-5.884-1.315,8.479,8.479,0,0,0-4.18.877,2.692,2.692,0,0,0-1.545,2.431,3.374,3.374,0,0,0,1.2,2.71,16.674,16.674,0,0,0,4.685,2.272,23,23,0,0,1,4.24,1.9,6.177,6.177,0,0,1,1.991,1.923A4.721,4.721,0,0,1,149.14,37.849Zm5.147,5.639h-1.961V21.828h1.961Zm-2.239-27.678q0-1.913,1.248-1.913a1.106,1.106,0,0,1,.961.5,2.457,2.457,0,0,1,.347,1.415,2.516,2.516,0,0,1-.347,1.415,1.1,1.1,0,0,1-.961.518Q152.048,17.743,152.048,15.811Z" transform="translate(-29.691 -6.248)" fill="#51627f" fill-rule="evenodd"/>
    <path id="Path_27" data-name="Path 27" d="M263.947,29.34h2.021l4.557,12.155q2.081,5.6,2.635,7.552h.119q.832-2.571,2.714-7.672L280.55,29.34h2.021l-9.649,25.167a19.646,19.646,0,0,1-1.961,4.145,5.261,5.261,0,0,1-1.853,1.614,5.615,5.615,0,0,1-2.565.538,8.79,8.79,0,0,1-2.516-.418V58.671a9.229,9.229,0,0,0,2.477.319,3.317,3.317,0,0,0,1.783-.478,4.457,4.457,0,0,0,1.4-1.485,19.562,19.562,0,0,0,1.446-3.188q.822-2.182,1.06-2.84Z" transform="translate(-128.304 -13.759)" fill="#51627f" fill-rule="evenodd"/>
    <path id="Path_28" data-name="Path 28" d="M257.015,21.995h-5.072V41.941h-1.961V21.995h-4V20.839l4-.737V18.428q0-3.985,1.457-5.848t4.765-1.863a12.291,12.291,0,0,1,3.566.538l-.456,1.714a10.463,10.463,0,0,0-3.15-.5,3.708,3.708,0,0,0-3.259,1.365,7.883,7.883,0,0,0-.961,4.434v2.013h5.072Z" transform="translate(-119.565 -4.7)" fill="#51627f" fill-rule="evenodd"/>
  </g>
</svg>
